<mxfile>
    <diagram>
        <mxGraphModel dx="320" dy="200" pageWidth="320" pageHeight="200">
            <root>
                <mxCell id="0">
                </mxCell>
                <mxCell id="13" vertex="1" parent="0">
                    <mxGeometry x="20" y="20" width="40" height="40" as="geometry">
                    </mxGeometry>
                </mxCell>
                <mxCell id="14" vertex="1" parent="0">
                    <mxGeometry x="100" y="20" width="40" height="40" as="geometry">
                    </mxGeometry>
                </mxCell>
            </root>
        </mxGraphModel>
    </diagram>
</mxfile>
